<?xml version="1.0" encoding="utf-8"?>
<!-- Generator: Adobe Illustrator 19.0.0, SVG Export Plug-In . SVG Version: 6.00 Build 0)  -->
<svg version="1.1" id="Layer_1" xmlns="http://www.w3.org/2000/svg" xmlns:xlink="http://www.w3.org/1999/xlink" x="0px" y="0px"
	 viewBox="0 0 50 50" style="enable-background:new 0 0 50 50;" xml:space="preserve">
<style type="text/css">
	.st0{fill:#00628C;}
</style>
<path id="XMLID_15_" class="st0" d="M34.3,2.9H20.8c-3.4,0-6.1,2.7-6.1,6.1c-3.2,0.1-5.8,2.8-5.8,6.1v26.5c0,3.4,2.7,6.1,6.1,6.1
	h13.5c3.4,0,6.1-2.7,6.1-6.1c3.2-0.1,5.8-2.8,5.8-6.1V9C40.4,5.6,37.6,2.9,34.3,2.9z M33,41.5c0,2.5-2.1,4.6-4.6,4.6H14.9
	c-2.5,0-4.6-2.1-4.6-4.6V15c0-2.5,2.1-4.6,4.6-4.6h13.5c2.5,0,4.6,2.1,4.6,4.6V41.5z M38.9,35.5c0,2.4-1.9,4.4-4.3,4.6V15
	c0-3.4-2.7-6.1-6.1-6.1H16.1c0-2.5,2.1-4.6,4.6-4.6h13.5c2.5,0,4.6,2.1,4.6,4.6V35.5z"/>
</svg>
