<?xml version="1.0" encoding="UTF-8"?><svg id="Capa_1" xmlns="http://www.w3.org/2000/svg" viewBox="0 0 1498.89 845.98"><defs><style>.cls-1{fill:#006583;}.cls-2,.cls-3{fill:#fff;}.cls-3{stroke:#fff;stroke-miterlimit:10;stroke-width:3px;}</style></defs><g><path class="cls-1" d="M724.43,347.49c.08,.27,.37,.43,.64,.35,6.39-1.86,12.99-3.21,19.64-4.03,.28-.03,.48-.29,.45-.57l-.81-6.75c-.03-.29-.3-.49-.58-.46-7.08,.87-14.11,2.32-20.91,4.3-.28,.08-.44,.37-.35,.65l1.92,6.52Z"/><path class="cls-1" d="M816.17,356.23c5.95,3.02,11.7,6.54,17.1,10.47,.23,.17,.55,.12,.72-.11l4.03-5.47c.17-.23,.12-.56-.11-.73-5.75-4.19-11.87-7.94-18.21-11.16-.26-.13-.58-.03-.71,.23l-3.05,6.07c-.13,.26-.03,.56,.23,.69Z"/><path class="cls-1" d="M794.2,347.61c6.41,1.83,12.72,4.2,18.77,7.05,.26,.12,.57,.01,.69-.25l2.92-6.13c.13-.26,.01-.58-.25-.7-6.44-3.04-13.16-5.56-19.99-7.51-.28-.08-.57,.08-.65,.36l-1.84,6.54c-.08,.28,.08,.56,.36,.64Z"/><path class="cls-1" d="M665.45,385.57c.22,.19,.54,.16,.73-.05,4.39-5.04,9.21-9.75,14.34-14.01,.22-.18,.25-.5,.07-.72l-4.32-5.25c-.18-.22-.52-.26-.74-.07-5.47,4.54-10.6,9.56-15.27,14.92-.19,.22-.17,.55,.05,.74l5.14,4.44Z"/><path class="cls-1" d="M682.56,369.19c.18,.23,.5,.26,.73,.09,5.26-4.12,10.87-7.83,16.71-11.04,.25-.14,.34-.45,.21-.71l-3.25-5.96c-.14-.26-.46-.35-.72-.21-6.22,3.42-12.2,7.38-17.8,11.76-.23,.18-.27,.51-.09,.74l4.21,5.32Z"/><path class="cls-1" d="M770.99,343.33c6.65,.58,13.29,1.71,19.75,3.35,.28,.07,.56-.1,.63-.37l1.7-6.57c.07-.28-.1-.57-.38-.65-6.89-1.75-13.96-2.96-21.05-3.57-.29-.03-.55,.19-.57,.48l-.56,6.76c-.02,.29,.19,.54,.47,.56Z"/><path class="cls-1" d="M836.12,368.84c5.28,4.09,10.26,8.63,14.81,13.5,.2,.21,.52,.22,.73,.03l4.98-4.61c.21-.2,.23-.53,.03-.75-4.85-5.19-10.15-10.03-15.78-14.38-.23-.18-.56-.13-.74,.1l-4.13,5.39c-.17,.23-.13,.55,.09,.73Z"/><path class="cls-1" d="M877.09,425.47c2.21,6.28,3.92,12.8,5.09,19.38,.05,.28,.31,.47,.6,.42l6.7-1.16c.28-.05,.48-.32,.43-.61-1.24-7.02-3.06-13.96-5.42-20.66-.1-.27-.4-.42-.67-.32l-6.4,2.28c-.27,.1-.41,.39-.31,.66Z"/><path class="cls-1" d="M645.84,401.5l5.89,3.39c.25,.14,.56,.06,.7-.19,3.35-5.77,7.2-11.3,11.45-16.47,.18-.22,.15-.54-.07-.72l-5.23-4.34c-.22-.18-.56-.15-.74,.07-4.52,5.5-8.62,11.39-12.19,17.54-.15,.25-.06,.57,.19,.72Z"/><path class="cls-1" d="M882.74,448.36c.25,1.71,.47,3.43,.65,5.14,.52,4.94,.75,9.93,.68,14.87,0,.28,.22,.52,.51,.52l6.8,.12c.29,0,.53-.23,.53-.51,.07-5.25-.17-10.57-.73-15.82-.19-1.82-.43-3.66-.7-5.48-.04-.29-.31-.48-.59-.44l-6.72,1.02c-.28,.04-.48,.3-.43,.59Z"/><path class="cls-1" d="M867.16,404.08c3.38,5.75,6.3,11.82,8.7,18.04,.1,.27,.4,.4,.67,.3l6.34-2.41c.27-.1,.41-.41,.31-.68-2.55-6.63-5.67-13.1-9.27-19.23-.15-.25-.48-.34-.73-.19l-5.84,3.46c-.25,.15-.33,.46-.18,.71Z"/><path class="cls-1" d="M853.32,384.99c4.42,5.01,8.45,10.41,11.99,16.05,.15,.24,.47,.32,.71,.17l5.77-3.59c.25-.15,.32-.48,.17-.72-3.77-6.02-8.06-11.77-12.77-17.11-.19-.22-.53-.24-.74-.04l-5.08,4.51c-.21,.19-.23,.51-.04,.73Z"/><path class="cls-1" d="M702.45,356.34c.13,.25,.44,.35,.7,.22,5.93-3.04,12.16-5.62,18.51-7.67,.27-.09,.42-.38,.34-.65l-2.06-6.47c-.09-.28-.39-.43-.66-.34-6.77,2.18-13.4,4.93-19.73,8.18-.26,.13-.36,.45-.23,.71l3.13,6.03Z"/><path class="cls-1" d="M760.21,590.32c-6.69,.03-13.4-.48-19.97-1.53-.28-.05-.55,.15-.6,.43l-1.09,6.7c-.05,.29,.15,.56,.44,.61,7,1.11,14.16,1.66,21.28,1.63,.29,0,.53-.24,.53-.54l-.06-6.78c0-.29-.24-.52-.52-.52Z"/><path class="cls-1" d="M828,570.65c-.16-.24-.48-.31-.72-.15-5.61,3.62-11.55,6.8-17.66,9.47-.26,.11-.38,.42-.27,.68l2.69,6.24c.12,.27,.43,.39,.69,.28,6.52-2.84,12.84-6.23,18.82-10.09,.24-.16,.31-.49,.15-.73l-3.71-5.69Z"/><path class="cls-1" d="M846.53,555.9c-.2-.21-.52-.21-.73-.01-4.83,4.62-10.05,8.86-15.55,12.64-.24,.16-.3,.48-.14,.72l3.82,5.61c.16,.24,.49,.3,.73,.14,5.86-4.02,11.42-8.55,16.56-13.46,.21-.2,.22-.54,.01-.75l-4.71-4.89Z"/><path class="cls-1" d="M783.7,588.01c-6.52,1.26-13.28,2.03-19.93,2.25-.29,0-.51,.25-.5,.53l.19,6.79c0,.29,.25,.52,.54,.51,3.25-.11,6.53-.33,9.77-.68,3.83-.41,7.68-.98,11.44-1.71,.28-.05,.47-.33,.41-.62l-1.32-6.67c-.06-.28-.32-.46-.6-.41Z"/><path class="cls-1" d="M767.98,342.58l.42-6.78c.02-.29-.2-.54-.49-.56-7.07-.41-14.24-.26-21.33,.47-.29,.03-.5,.29-.47,.58l.72,6.75c.03,.29,.28,.49,.57,.46,6.67-.68,13.4-.83,20.04-.44,.29,.02,.53-.2,.55-.49Z"/><path class="cls-1" d="M807.01,581.63c-.11-.27-.41-.4-.68-.29-6.18,2.48-12.61,4.48-19.13,5.94-.28,.06-.46,.34-.4,.62l1.45,6.63c.06,.29,.35,.47,.63,.4,6.95-1.55,13.8-3.68,20.38-6.32,.27-.11,.4-.42,.29-.69l-2.56-6.28Z"/><path class="cls-1" d="M887.94,496.47l-6.61-1.56c-.28-.07-.56,.11-.62,.38-1.56,6.48-3.66,12.88-6.25,19.04-.11,.26,.01,.57,.27,.68l6.25,2.66c.27,.11,.58-.01,.69-.28,2.77-6.56,5.01-13.39,6.67-20.3,.07-.28-.11-.57-.39-.64Z"/><path class="cls-1" d="M861.95,537.92c-.23-.16-.55-.11-.72,.12-3.87,5.44-8.21,10.6-12.9,15.35-.2,.2-.2,.53,0,.73l4.81,4.8c.21,.2,.54,.2,.74,0,5-5.06,9.62-10.56,13.74-16.35,.17-.24,.11-.57-.13-.73l-5.55-3.92Z"/><path class="cls-1" d="M891.3,471.7l-6.78-.26c-.29-.01-.53,.21-.54,.5-.29,6.67-1.12,13.35-2.49,19.87-.06,.28,.12,.55,.4,.61l6.64,1.42c.28,.06,.57-.12,.63-.41,1.46-6.96,2.35-14.08,2.65-21.19,.01-.29-.22-.54-.51-.55Z"/><path class="cls-1" d="M879.89,520.14l-6.19-2.79c-.26-.12-.57,0-.69,.26-2.77,6.07-6.05,11.95-9.76,17.5-.16,.24-.1,.56,.14,.72l5.63,3.8c.24,.16,.57,.1,.73-.14,3.96-5.92,7.46-12.18,10.4-18.65,.12-.27,0-.58-.26-.7Z"/><path class="cls-1" d="M674.41,556.37c-4.86-4.59-9.37-9.59-13.41-14.89-.17-.23-.5-.27-.72-.1l-5.42,4.1c-.23,.18-.28,.51-.1,.74,4.31,5.64,9.11,10.98,14.29,15.86,.21,.2,.55,.19,.74-.02l4.65-4.96c.2-.21,.18-.53-.02-.73Z"/><path class="cls-1" d="M736.72,588.18c-6.56-1.24-13.06-3.02-19.33-5.3-.27-.1-.57,.04-.66,.31l-2.35,6.37c-.1,.27,.04,.58,.31,.68,6.69,2.43,13.61,4.33,20.6,5.64,.29,.05,.56-.14,.62-.42l1.23-6.68c.05-.28-.13-.55-.42-.6Z"/><path class="cls-1" d="M639.27,495.98c-1.3-5.33-2.25-10.81-2.83-16.3-.12-1.16-.23-2.33-.32-3.49-.02-.29-.27-.5-.56-.48l-6.77,.5c-.29,.02-.51,.27-.49,.56,.1,1.24,.21,2.49,.34,3.73,.62,5.84,1.63,11.67,3.01,17.35,.07,.28,.36,.46,.64,.39l6.59-1.63c.28-.07,.45-.35,.38-.63Z"/><path class="cls-1" d="M635.41,473.17c.28-.02,.49-.25,.48-.53-.33-6.69-.11-13.43,.64-20.05,.03-.28-.17-.53-.44-.56l-6.77-.8c-.28-.03-.54,.17-.57,.45-.81,7.05-1.04,14.24-.68,21.36,.01,.28,.26,.5,.54,.49l6.8-.36Z"/><path class="cls-1" d="M629.68,448.57l6.72,.94c.29,.04,.55-.16,.59-.44,.95-6.6,2.45-13.17,4.46-19.53,.09-.27-.06-.57-.34-.65l-6.46-2.07c-.28-.09-.58,.06-.67,.34-2.15,6.79-3.75,13.79-4.76,20.83-.04,.29,.16,.56,.45,.6Z"/><path class="cls-1" d="M647.01,518.25c-2.79-6.06-5.09-12.38-6.86-18.82-.08-.28-.36-.44-.64-.36l-6.56,1.77c-.28,.08-.45,.37-.37,.65,1.88,6.86,4.34,13.61,7.31,20.06,.12,.26,.44,.38,.7,.26l6.16-2.86c.26-.12,.37-.43,.25-.69Z"/><path class="cls-1" d="M658.88,538.62c-3.9-5.43-7.38-11.19-10.33-17.16-.13-.25-.43-.36-.69-.23l-6.1,2.99c-.26,.13-.37,.44-.24,.7,3.15,6.36,6.85,12.51,11.02,18.29,.17,.23,.5,.29,.73,.12l5.5-3.99c.23-.17,.28-.49,.11-.72Z"/><path class="cls-1" d="M714.04,581.62c-6.2-2.46-12.24-5.44-17.98-8.86-.25-.15-.57-.07-.71,.18l-3.5,5.81c-.15,.25-.07,.58,.18,.73,6.11,3.65,12.54,6.83,19.15,9.44,.27,.11,.58-.03,.69-.3l2.47-6.32c.1-.27-.03-.57-.29-.68Z"/><path class="cls-1" d="M693.03,570.88c-5.63-3.59-11.01-7.66-16-12.1-.21-.19-.53-.17-.72,.04l-4.55,5.06c-.19,.21-.18,.55,.04,.74,5.31,4.74,11.03,9.07,17.03,12.89,.24,.15,.57,.08,.72-.16l3.63-5.75c.15-.24,.08-.55-.16-.71Z"/><path class="cls-1" d="M635.49,424.25l6.43,2.21c.27,.09,.56-.05,.66-.32,2.19-6.29,4.92-12.46,8.12-18.33,.14-.25,.05-.56-.2-.7l-5.96-3.27c-.25-.14-.57-.05-.71,.21-3.4,6.26-6.31,12.83-8.65,19.53-.1,.27,.05,.57,.33,.67Z"/><path class="cls-1" d="M846.85,322.14c2.31-4.73,6.26-12.76,7.2-13.98,.12-.03,.23-.05,.35-.08,.4,.03,.76,.17,1.12,.36,10.34,5.48,46.26,22.02,55.74,26.32,.47,.21,.44-.13,.81-.99,.6-1.37,2.82-7.94,3.58-10.26,1.4-4.29,2.02-8.67,1.95-13.21-.06-4.31-1.18-8.3-3.02-12.09-1.77-3.64-7.9-11.38-11.19-13.98-3.14-2.48-17.7-13.41-20.38-14.87-.67-.37-1.32-1.06-.91-1.66,.54-.78-.23-1.3-.74-1.73-.79-.66,.72-2.72,1.26-3.64,.42-.79-.41-1.13-1.87-2.06-.36-.23-1.42-.82-1.04-1.59,.65-1.31,8-17,8.74-18.32,.62-1.11,.91-1.76-.19-2.38-1.43-.81-10.02-4.96-11.85-5.67-1.31-.51-2.04,.72-2.39,1.3-2.8,4.7-10.3,19.76-11.51,19.33-1.53-.55-3.08-1.06-4.62-1.59-1.56-.53-3.15-1.09-4.21-2.41-11.44-14.16-10.9-40.05-10.16-43.91,.91-4.72-11.73-26.76-68.09-30.33h0c-20.4-1.83-34.59-.79-36.92-.66-57.68,3.26-70.55,25.66-69.63,30.42,.74,3.86,1.28,29.75-10.16,43.91-1.06,1.32-2.65,1.87-4.21,2.41-1.54,.53-3.09,1.04-4.62,1.59-1.21,.43-8.71-14.63-11.51-19.33-.35-.59-1.08-1.81-2.39-1.3-1.83,.7-10.42,4.86-11.85,5.67-1.1,.62-.81,1.28-.19,2.38,.74,1.33,8.09,17.01,8.74,18.32,.38,.77-.67,1.35-1.04,1.59-1.46,.93-2.28,1.27-1.87,2.06,.54,.92,2.05,2.98,1.26,3.64-.51,.43-1.28,.95-.74,1.73,.41,.6-.24,1.3-.91,1.66-2.68,1.46-17.24,12.39-20.38,14.87-3.29,2.6-9.42,10.34-11.19,13.98-1.84,3.79-2.96,7.78-3.02,12.09-.07,4.54,.55,8.92,1.95,13.21,.76,2.32,2.98,8.89,3.58,10.26,.38,.86,.35,1.2,.81,.99,9.48-4.29,45.4-20.84,55.74-26.32,.36-.19,.71-.34,1.12-.36l8.88,15.99c-47.1,30.11-78.19,83.06-78.19,143.25,0,93.53,76.09,169.62,169.62,169.62s169.62-76.09,169.62-169.62c0-61.1-32.47-114.75-81.06-144.61Zm28.02-56.38v.02h-.01v-.02Zm-6.89-8.29s-.04,0-.04-.03l.04,.03Zm-10.53,45.28s-.05-.02-.08-.03h-.02s.06,.02,.1,.03Zm-17.52-99.19s-.03-.01-.04-.02c-.03-.04-.07-.08-.11-.12h0s.08,.1,.16,.13Zm-45.95-19.66h0Zm-17.11-6.43s-.04-.01-.07-.02c-.02-.09,.04-.04,.07,.02Zm-107.13,125.63c-.94-.97,.59-1.89,1.81-2.61,13.58-8,53.25-29.84,53.86-32.13,.63-2.35-2.71-5.66-3.95-7.76-.86-1.46-6.45-7.78-8.29-9.54-2.25-2.16-5.03-3.45-7.91-4.47-2.87-1.01-5.82-1.54-8.89-1.81-1.81-.15-10.53,.33-13.99,1.16-2.88,.69-19.01,8.39-17.89,6.74,11.77-17.4,10.34-29.79,12.15-47.14,.72-6.94,38.34-19.95,72.29-21.07h16.91c32.4,2.21,69.24,15.07,69.92,21.64,1.81,17.35,.38,29.74,12.15,47.14,1.11,1.64-15.01-6.05-17.89-6.74-3.46-.83-12.18-1.31-13.99-1.16-3.08,.26-6.03,.79-8.89,1.8-2.88,1.02-5.66,2.31-7.91,4.47-1.83,1.76-7.42,8.08-8.29,9.54-1.24,2.1-4.58,5.41-3.95,7.76,.61,2.29,40.28,24.13,53.86,32.13,1.22,.72,2.75,1.64,1.81,2.61-.62,.63-4.65,8.1-6.68,12.33-23.29-12.05-48.7-18.86-76.68-18.86-.17,0-.33,0-.5,0v-26.41h13.83c1.19,0,2.16-.97,2.16-2.16h1.61c.63,0,1.14-.51,1.14-1.14v-5.73c0-.63-.51-1.14-1.14-1.14h-1.61v-.98c0-1.19-.97-2.16-2.16-2.16h-13.06v-2.21c0-.63-.51-1.14-1.14-1.14h-2c-.63,0-1.14,.51-1.14,1.14v2.21h-13.66c-1.19,0-2.16,.97-2.16,2.16v.98h-1.59c-.63,0-1.14,.51-1.14,1.14v5.73c0,.63,.51,1.14,1.14,1.14h1.59c0,1.19,.97,2.16,2.16,2.16h13.85v26.43c-28.15,.3-54.58,7.5-77.75,19.97-2.01-4.16-7.34-13.35-7.99-14.03Zm173.78-10h-.07s.01-.03,.02-.05l.05,.05Zm-2.23-41.55s-.09-.02-.14-.02c.04-.02,.08-.05,.12-.07-.13-.16,.13-.02,.01,.1Zm-81.52,351.08c-74.92,0-135.87-60.95-135.87-135.87s60.95-135.87,135.87-135.87,135.87,60.95,135.87,135.87-60.95,135.87-135.87,135.87Z"/></g><path class="cls-1" d="M797.03,595.3c2.29-4.08,3.51-8.96,3.51-14.19,0-13.54-10.11-25.08-23.52-26.84-1.66-.22-8.76-.23-8.83-.23,0,0-13.94,.34-16.56,.81-2.62,.46-5.48,2.26-7.7,4.15,.03-.33,.05-.67,.05-1.01,0-6.93-5.64-12.57-12.57-12.57s-12.57,5.64-12.57,12.57c0,1.23-.11,1.51,0,3.31v25.91c0,2.93,1.12,6,2.31,8.67,3.33,7.48,10.77,12.31,18.96,12.31,2.13,0,4.19-.33,6.12-.93-.03,.36-.05,.73-.05,1.11v10.2c0,5.95,4.49,10.44,10.44,10.44,1.75,0,3.36-.4,4.78-1.09,1.59,.7,3.36,1.09,5.22,1.09,1.45,0,2.77-.17,3.96-.47,1.03,.31,2.13,.47,3.28,.47,1.83,0,3.55-.48,5.04-1.3,1.88,.85,3.91,1.3,5.94,1.3,1.04,0,2.04-.11,3-.31,.83,.21,1.71,.31,2.62,.31,5.85,0,10.26-4.44,10.26-10.33v-15.28c0-3.32-1.4-6.19-3.68-8.07Z"/><g><g><path class="cls-3" d="M904.97,440.37c-.06-8.74-.12-17.48-.15-26.23-.01-3.64-1.05-6.74-3.07-9.21-1.42-1.73-4.65-4.67-10.3-4.82-1.86-.05-3.72-.11-5.59-.16-3.74-.11-7.61-.23-11.44-.3-3.21-.06-7.6-.14-11.42,3.26-4.18,3.73-4.3,8.68-4.37,11.64-.13,5.59-.25,11.23-.36,16.85-2.92-2.39-6.02-2.75-7.53-2.77-1.4-.03-4.09,.22-6.82,2.02-.02-5-.03-9.99-.04-14.99,0-3.35-.02-8.41-4.17-12.27-4.13-3.85-9.16-3.52-12.49-3.29-1.11,.07-2.45,.03-3.87-.01-1.03-.03-2.1-.06-3.24-.06-1.29,0-2.58,.03-3.87,.06-1.19,.03-2.39,.05-3.58,.05-.02,0-.04,0-.06,0-5.15,0-8.37,2.17-10.17,3.99-2.65,2.69-3.97,6.27-3.91,10.65,.05,3.26,.09,6.53,.13,9.8-4.67-10.02-12.38-17.69-22.04-21.8-10.04-4.27-21.5-4.53-32.28-.71-14.75,5.22-23.96,14.27-30.02,29.73-.1-4.91-.19-9.82-.28-14.71-.15-8.2-5.59-14.01-13.53-14.44-.76-.04-1.52-.09-2.27-.13-3.43-.21-6.98-.42-10.69-.32-12.89,.32-15.44,9-15.3,16.21,.1,5.23,.19,10.45,.3,15.68-3.73-7.38-7.45-14.77-11.16-22.19-4.18-8.36-11.22-9.58-15.05-9.56-1.65,0-3.39-.06-5.22-.14-1.65-.07-3.37-.14-5.13-.15-.07,0-.13,0-.2,0-6.06,0-9.78,2.56-11.84,4.72-2.09,2.2-4.51,6.13-4.16,12.4,.06,1.02,.15,2,.23,2.85,.1,1.03,.19,1.99,.19,2.75,.14,23.35,.26,46.7,.37,70.05l.14,26.62c0,.14,0,.29-.01,.43-.05,1.38-.16,3.94,.89,6.74,1.53,4.11,5.5,9.02,11.64,9.34,4.63,.24,9.87,.52,15.22,.03,5.89-.54,9.18-3.41,10.9-5.73,2.93-3.94,2.95-8.46,2.96-9.94,.02-4.91,.05-9.82,.07-14.73,2.64,4.4,5.28,8.81,7.92,13.21,1.21,2.01,2.46,3.97,3.66,5.86,.85,1.34,1.7,2.68,2.54,4.03,3.11,5.04,7.99,7.83,13.58,7.83,.61,0,1.22-.03,1.84-.1,2.34-.25,4.82-.34,7.44-.43l.67-.02c10.16-.37,16.34-6.87,16.13-16.99l-.12-5.48c6.58,11.09,16.89,18.52,30.46,21.82,3.71,.9,7.32,1.35,10.82,1.35,10.02,0,19.08-3.68,26.6-10.88,6.93-6.64,12.19-14.07,15.74-22.19,.06,4.45,.11,8.91,.17,13.36,.03,1.95,.21,3.77,.37,5.37,.07,.67,.13,1.34,.19,2.01,.56,7.22,6.05,12.3,13.16,12.3,.21,0,.43,0,.65-.01,6.88-.29,12.14-.49,17.05-.63,6.53-.18,11.74-3.85,14.3-10.06,1.95-4.73,3.97-9.54,5.94-14.22,2.47,5.21,5,10.53,7.55,15.77,2.09,4.28,6.82,8.66,12.65,8.79,6.39,.14,12.75-.09,18.71-.35,8.22-.35,14.03-6.47,14.12-14.88,.06-5.75,.17-11.62,.27-17.29,.15-8.34,.32-16.97,.32-25.5,.01-13.31-.08-26.82-.17-39.89Zm-148.26,50.56c-.32,.59-.62,1.01-.84,1.29-2.61-1.1-3.64-2.43-4.2-5.36-2.1-11.1-2.26-20.07-.49-28.22,.95-4.38,2.8-8.14,5.63-11.42,1.4,2.44,2.3,5.64,2.85,10,.05,.38,.11,.82,.18,1.33,.7,4.95,2.33,16.46-3.13,32.39Z"/><g><path class="cls-1" d="M834.28,472.11c1.97-3.8,4.09-7.53,5.87-11.41,2.46-5.36,4.66-10.85,6.99-16.27,.53-1.23,1.05-2.48,1.74-3.62,1.11-1.83,2.33-1.84,3.4,.04,4.83,8.46,9.61,16.95,14.4,25.43,.37,.66,.75,1.31,1.74,1.84,0-1.03-.02-2.06,0-3.09,.32-16.73,.61-33.47,1-50.2,.1-4.33,.33-4.45,4.8-4.37,5.65,.11,11.29,.3,16.94,.46,2.16,.06,2.87,1.16,2.88,3.28,.08,22.02,.34,44.04,.32,66.07-.01,14.23-.45,28.46-.6,42.69-.03,2.7-1.27,4.11-3.78,4.21-6,.25-12.02,.47-18.02,.34-1.11-.02-2.61-1.55-3.19-2.74-4.83-9.89-9.46-19.88-14.21-29.81-1.06-2.22-2.34-4.34-3.9-7.21-1.94,4.69-3.57,8.62-5.21,12.55-3.28,7.84-6.61,15.67-9.85,23.53-.88,2.14-2.24,3.32-4.63,3.38-5.74,.16-11.47,.39-17.21,.63-1.71,.07-2.46-.74-2.58-2.34-.17-2.23-.49-4.45-.52-6.68-.45-34.73-.84-69.46-1.33-104.19-.04-2.51,.74-3.7,3.29-3.7,2.51,0,5.02-.1,7.53-.11,2.6,0,5.22,.23,7.81,.05,4.89-.33,5.13-.18,5.15,4.83,.05,17.37,.1,34.73,.16,52.1,0,1.39,0,2.78,0,4.17l1.03,.14Z"/><path class="cls-1" d="M684.14,478.27c0-.96,.02-1.92,0-2.88-.37-19.06-.76-38.12-1.11-57.18-.08-4.32,.53-5.12,4.79-5.23,4.03-.1,8.07,.22,12.1,.44,2.38,.13,3.29,1.39,3.34,3.87,.65,34.63,1.4,69.27,2.12,103.9,.09,4.19-1.5,5.83-5.73,5.98-2.96,.11-5.92,.19-8.86,.51-2.4,.25-3.92-.75-5.1-2.66-2.02-3.28-4.15-6.49-6.13-9.79-7.7-12.81-15.37-25.65-23.04-38.48-1.42-2.37-2.83-4.74-4.47-7.48-.11,.96-.25,1.6-.26,2.24-.1,16.92-.19,33.84-.27,50.75-.01,3.12-.83,4.68-4.05,4.97-4.52,.41-9.12,.18-13.67-.06-.77-.04-1.75-1.39-2.1-2.34-.39-1.03-.19-2.29-.19-3.46-.17-32.23-.32-64.45-.51-96.68-.01-2.05-.33-4.1-.45-6.15-.22-3.82,1.53-5.75,5.33-5.71,3.5,.03,7,.31,10.49,.29,2.7-.01,4.18,1.24,5.36,3.6,9.18,18.33,18.45,36.62,27.74,54.9,1.2,2.37,2.62,4.62,3.94,6.93l.73-.28Z"/><path class="cls-1" d="M718.68,477.73c-.21-12.5,1.14-24.87,3.94-37,4.99-15.89,12.05-23.79,25.33-28.49,16.23-5.75,34.92,.42,42.13,19.71,7.58,20.28,7.76,40.58,2.53,61.19-2.67,10.49-8.34,19.4-16.12,26.85-7.74,7.41-17.09,9.35-27.41,6.84-16.33-3.97-25.53-14.86-29.04-30.71-1.32-5.96-1.57-18.36-1.35-18.38Zm51.68-21.87c-.79-6.26-2.39-12.34-6.5-17.37-3.1-3.79-9.72-3.94-13.19-.5-5.17,5.13-8.5,11.24-10.04,18.35-2.36,10.88-1.62,21.7,.44,32.52,1.23,6.5,4.73,10.94,11.01,13.46,4.24,1.7,7.78,1.06,10.89-1.91,1.51-1.45,2.75-3.32,3.68-5.21,7.16-20.3,4.27-34.92,3.71-39.35Z"/></g></g><g><path class="cls-2" d="M768.19,562.62l5.28,7.04c6.4,0,11.59,5.19,11.59,11.59s-4.11,12.06-11.4,11.21c-2.17-.42-4.09-2.23-4.11-4.42v-13.26c0-1.76-.39-3.44-1.06-4.95-.85-1.9-2.16-3.54-3.8-4.77-2.03-1.53-4.57-2.44-7.31-2.44-6.72,0-12.16,5.45-12.16,12.16,0,.33,.04,12.41,.04,12.64,0,2.83-2.3,5.13-5.13,5.13-2.62,0-4.79-1.97-5.09-4.51v-22.98h-7.07v22.36c0,1.76,.38,3.44,1.05,4.95,1.9,4.25,6.16,7.22,11.11,7.22,6.72,0,12.16-5.45,12.16-12.16,0-.53-.04-12.35-.04-12.64,0-2.83,2.3-5.13,5.13-5.13,2.62,0,4.79,1.97,5.09,4.51v13.26c0,1.76,.39,3.44,1.06,4.95,.77,1.73,1.95,3.27,3.42,4.47,1.45,1.17,3.04,1.95,4.87,2.37,1.66,.38,3.38,.46,5.07,.28,1.69-.19,3.35-.65,4.9-1.35,1.57-.7,3.03-1.65,4.33-2.79,.45-.4,.88-.82,1.29-1.26,.68-.74,1.28-1.54,1.81-2.39,1.97-3.17,2.75-6.9,2.75-10.6,0-9.38-6.99-17.13-16.05-18.33-.8-.11-6.89-.16-7.71-.16"/><path class="cls-2" d="M731.42,554c-2.19,0-3.98,1.79-3.98,3.98s1.79,3.98,3.98,3.98,3.98-1.78,3.98-3.98-1.79-3.98-3.98-3.98"/><path class="cls-2" d="M754.7,603.35c0,1.06,.86,1.92,1.92,1.92s1.92-.86,1.92-1.92-.86-1.92-1.92-1.92-1.92,.86-1.92,1.92m.08,5.01v10.2c0,.99,.41,1.85,1.85,1.85s1.85-.86,1.85-1.85v-10.2c0-.99-.41-1.85-1.85-1.85s-1.85,.86-1.85,1.85"/><path class="cls-2" d="M763.28,609.85c0,.76,.63,1.42,1.57,1.42,1.47,0,1.54-2.02,4.28-2.02,1.24,0,2.33,.46,2.33,1.52s-.71,1.27-1.59,1.37l-2.25,.25c-2.83,.33-5.16,1.19-5.16,4.25,0,2.33,2.07,3.77,4.17,3.77,1.95,0,3.62-.56,5.06-2.15,.05,1.14,.58,2.15,2.18,2.15,.89,0,1.67-.58,1.67-1.42,0-.58-.38-.94-.38-2.48v-6.2c0-2.66-2.45-3.8-6-3.8-3.8,0-5.87,1.87-5.87,3.34m2.86,6.6c0-1.11,.84-1.59,2.38-1.82l1.34-.2c.43-.08,1.19-.2,1.59-.58v1.44c0,1.37-1.24,2.68-3.26,2.68-1.27,0-2.05-.68-2.05-1.52"/><path class="cls-2" d="M788.43,603.37v5.01h-.05c-.73-1.19-2-1.87-3.64-1.87-3.9,0-5.69,3.32-5.69,6.86,0,4.78,2.71,7.03,5.79,7.03,1.8,0,3.29-.76,3.9-2.33h.05v.58c0,1.14,.58,1.75,1.67,1.75s1.67-.61,1.67-1.75v-15.28c0-1.21-.73-1.85-1.85-1.85s-1.85,.63-1.85,1.85m-5.69,10.12c0-1.72,.58-4.1,2.94-4.1,2.25-.03,2.96,2.2,2.96,4.1,0,2.1-.81,4.02-2.96,4.02-1.97-.05-2.94-1.85-2.94-4.02"/></g></g></svg>