<?xml version="1.0" encoding="utf-8"?>
<!-- Generator: Adobe Illustrator 19.0.0, SVG Export Plug-In . SVG Version: 6.00 Build 0)  -->
<svg version="1.1" id="Layer_1" xmlns="http://www.w3.org/2000/svg" xmlns:xlink="http://www.w3.org/1999/xlink" x="0px" y="0px"
	 viewBox="0 0 200 200" style="enable-background:new 0 0 200 200;" xml:space="preserve">
<style type="text/css">
	.st0{fill:#FFFFFF;}
</style>
<g id="XMLID_6_">
	<g id="XMLID_34_">
		<path id="XMLID_44_" class="st0" d="M118.7,77.4c5.1-11.9,10-23.5,15-35.1c1.2-2.8,2.4-5.6,3.7-8.3c0.2-0.4,0.8-0.9,1.2-0.9
			c4.8-0.1,9.5,0,14.6,0c-11.5,26.1-23,52.1-34.7,78.5C111,95,103.6,78.7,96.2,62.3c-7.5,16.3-15,32.5-22.7,49.1
			C62.1,85.1,50.9,59.2,39.6,33c1.1,0,2.1,0,3,0c3.8,0,7.6,0,11.4,0c0.8,0,1.2,0.2,1.6,1C60.7,46.3,65.8,58.6,71,70.8
			c0.9,2.1,1.8,4.1,2.8,6.5c7.5-16,14.9-31.7,22.4-47.6C103.7,45.7,111.1,61.4,118.7,77.4z"/>
		<path id="XMLID_40_" class="st0" d="M35.5,168.4c-0.8,0-1.5,0-2.4,0c0-3.7,0-7.4,0-11.2c-4.9,0-9.7,0-14.7,0c0,3.7,0,7.4,0,11.2
			c-1,0-1.9,0-2.8,0c0-8.1,0-16.2,0-24.4c0.8,0,1.6,0,2.6,0c0,3.5,0,7.1,0,10.7c5,0,9.8,0,14.8,0c0-3.6,0-7.1,0-10.8
			c0.9,0,1.7,0,2.5,0C35.5,152,35.5,160.2,35.5,168.4z"/>
		<path id="XMLID_39_" class="st0" d="M164.8,162c0.8-0.4,1.6-0.7,2.6-1.2c0,2.1,0.6,3.6,2.2,4.8c2.4,1.8,7.5,1.6,9.7-0.7
			c2.1-2.3,1.6-5.6-1.2-6.8c-1.8-0.8-3.8-1.2-5.7-1.8c-1.3-0.5-2.7-0.9-3.8-1.6c-3.7-2.4-3.4-8.4,0.6-10.2c3.7-1.7,7.6-1.8,11,0.8
			c1.1,0.8,1.8,2.2,2.8,3.4c-1,0.6-1.8,0.9-2.5,1.3c-0.7-1-1.2-2-2-2.8c-2.1-2.2-6.7-2.4-8.9-0.2c-2.3,2.4-1.1,5.5,1.9,6.5
			c1.5,0.5,3.1,0.9,4.7,1.4c2.4,0.6,4.6,1.4,6,3.6c2,3.3,0.7,7.7-3,9.5c-3.5,1.7-7.3,1.7-10.8-0.1
			C166.3,166.7,165.1,164.6,164.8,162z"/>
		<path id="XMLID_38_" class="st0" d="M109.3,168.3c0-8.2,0-16.2,0-24.4c5.3,0,10.5,0,15.8,0c0,0.8,0,1.6,0,2.5c-4.4,0-8.8,0-13.3,0
			c0,2.8,0,5.5,0,8.4c4,0,8,0,12.1,0c0,0.8,0,1.4,0,2.2c-4,0-7.9,0-12,0c0,3.1,0,6.1,0,9.2c4.7,0,9.5,0,14.3,0c0,0.8,0,1.4,0,2.2
			C120.6,168.3,115,168.3,109.3,168.3z"/>
		<path id="XMLID_37_" class="st0" d="M88.1,146.1c0,7.5,0,14.8,0,22.2c-0.8,0-1.6,0-2.5,0c0-7.3,0-14.7,0-22.2c-2.6,0-5,0-7.6,0
			c0-0.8,0-1.5,0-2.3c5.8,0,11.6,0,17.6,0c0,0.7,0,1.4,0,2.2C93.2,146.1,90.7,146.1,88.1,146.1z"/>
		<path id="XMLID_36_" class="st0" d="M140.6,143.9c0.8,0,1.5,0,2.4,0c0,7.4,0,14.8,0,22.3c4.6,0,9,0,13.4,0c0,0.8,0,1.4,0,2.1
			c-5.3,0-10.5,0-15.8,0C140.6,160.2,140.6,152.1,140.6,143.9z"/>
		<path id="XMLID_5_" class="st0" d="M67.5,149.9c-1.4-3.9-4.2-6.3-8.4-6.6c-4.6-0.3-8.2,1.4-10.3,5.7c-1.6,3.2-1.7,6.5-1.3,9.9
			c0.7,5.5,3.9,10.1,10.4,10.2c3.7-0.2,6.3-0.9,8.5-4.8C69.1,159.8,69.4,154.9,67.5,149.9z M63.6,163.9c-2.4,3.9-9.4,3.9-11.8-0.4
			c-2.5-4.6-2.6-9.4-0.3-14c1.4-2.9,4-4.2,7.2-3.8c3.3,0.3,5.3,2.5,6.2,5.5c0.5,1.6,0.7,3.3,1,4.9C65.9,158.9,65.2,161.5,63.6,163.9
			z"/>
	</g>
</g>
</svg>
