<?xml version="1.0" standalone="no"?>
<!DOCTYPE svg PUBLIC "-//W3C//DTD SVG 20010904//EN"
 "http://www.w3.org/TR/2001/REC-SVG-20010904/DTD/svg10.dtd">
<svg version="1.0" xmlns="http://www.w3.org/2000/svg"
 width="512.000000pt" height="512.000000pt" viewBox="0 0 512.000000 512.000000"
 preserveAspectRatio="xMidYMid meet">
<metadata>
Created by potrace 1.14, written by Peter Selinger 2001-2017
</metadata>
<g transform="translate(0.000000,512.000000) scale(0.100000,-0.100000)"
fill="#000000" stroke="none">
<path d="M275 4266 c-133 -43 -225 -168 -220 -301 2 -51 32 -155 45 -155 6 0
10 -5 10 -11 0 -23 84 -95 120 -103 3 -1 16 -8 29 -15 22 -12 145 -18 181 -9
41 11 109 49 138 79 57 56 85 123 88 208 2 85 -7 118 -50 181 -36 54 -51 70
-65 70 -6 0 -11 4 -11 9 0 9 -62 42 -90 48 -51 11 -140 11 -175 -1z"/>
<path d="M2327 3614 c-1 -1 -31 -4 -67 -7 -72 -6 -147 -22 -200 -42 -67 -26
-75 -28 -82 -27 -5 1 -8 -2 -8 -7 0 -5 -10 -11 -22 -15 -13 -3 -52 -24 -87
-47 -215 -139 -366 -356 -416 -595 -3 -13 -8 -36 -11 -51 -4 -16 -7 -289 -8
-608 -1 -319 -5 -589 -8 -600 -39 -121 -68 -166 -153 -230 -153 -118 -382 -98
-514 43 -38 41 -80 107 -87 137 -2 6 -7 24 -12 40 -5 17 -8 45 -7 63 1 17 -2
32 -7 32 -5 0 -6 5 -2 12 11 18 12 68 2 68 -5 0 -6 5 -2 12 11 18 12 68 2 68
-5 0 -6 5 -2 12 11 17 11 138 1 138 -5 0 -5 6 -1 12 11 18 12 48 2 48 -5 0 -6
6 -2 12 11 18 12 48 2 48 -5 0 -6 6 -2 12 11 18 12 48 2 48 -5 0 -6 6 -2 12
11 18 12 48 2 48 -5 0 -6 6 -2 12 11 18 12 48 2 48 -5 0 -6 6 -2 12 11 18 12
48 2 48 -5 0 -6 6 -2 12 11 18 12 48 2 48 -5 0 -6 6 -2 12 11 18 12 48 2 48
-5 0 -6 6 -2 12 11 18 12 48 2 48 -5 0 -6 6 -2 12 11 18 12 48 2 48 -5 0 -6 6
-2 12 11 18 12 48 2 48 -5 0 -6 6 -2 12 11 18 12 48 2 48 -5 0 -6 6 -2 12 11
18 12 48 2 48 -5 0 -6 6 -2 12 11 18 12 48 2 48 -5 0 -6 6 -2 12 11 18 12 48
2 48 -5 0 -6 6 -2 12 11 18 12 48 2 48 -5 0 -6 6 -2 12 11 18 12 48 2 48 -5 0
-6 6 -2 12 11 18 12 48 2 48 -5 0 -6 6 -2 12 12 19 12 48 0 48 -7 0 -7 3 -1 8
12 9 14 62 2 62 -4 0 -5 5 -1 12 11 18 12 68 1 68 -6 0 -6 5 0 13 7 10 9 55 4
103 -1 7 -84 10 -273 10 l-273 -1 0 -900 c1 -495 4 -922 8 -950 15 -101 25
-144 38 -160 4 -5 8 -14 8 -20 2 -21 25 -81 39 -102 8 -13 11 -23 7 -23 -3 0
1 -7 9 -16 9 -8 16 -22 16 -30 0 -8 4 -14 9 -14 5 0 12 -8 15 -17 3 -10 16
-29 29 -43 13 -14 27 -33 33 -42 9 -16 91 -104 116 -123 149 -118 306 -189
468 -212 54 -8 250 -8 296 0 23 4 70 16 105 26 35 10 71 20 79 22 8 2 18 7 21
12 3 4 16 9 29 12 12 2 30 11 39 18 9 8 31 19 49 27 17 7 32 16 32 20 0 4 12
12 26 19 29 13 61 40 136 115 148 147 246 354 263 556 4 41 9 78 11 82 3 4 0
8 -6 8 -6 0 -8 5 -5 11 4 5 6 200 5 432 -1 232 -2 459 -2 503 0 85 25 198 49
222 7 7 13 18 13 23 0 20 109 131 122 123 4 -3 8 -1 8 3 0 10 76 44 102 46 10
1 18 4 18 7 0 13 124 9 181 -5 138 -36 254 -152 285 -285 4 -19 8 -278 9 -575
1 -297 5 -573 9 -612 4 -40 8 -76 8 -80 0 -5 4 -15 9 -24 4 -9 11 -31 14 -49
7 -42 89 -213 124 -260 14 -19 33 -44 41 -55 33 -44 158 -159 207 -191 46 -29
130 -76 143 -79 3 -1 12 -5 20 -8 64 -28 145 -49 245 -65 50 -7 280 -8 320 0
44 9 98 19 115 22 34 6 107 28 135 40 17 8 41 17 55 21 73 22 247 123 335 195
65 53 193 188 239 253 58 81 153 265 162 313 3 19 9 34 13 34 4 0 8 6 8 13 0
6 7 39 16 72 9 33 18 74 21 90 3 17 8 41 11 55 15 67 18 119 18 295 0 177 -3
222 -18 285 -3 14 -8 36 -11 50 -3 14 -9 40 -15 58 -6 18 -12 41 -14 50 -2 9
-4 18 -5 20 -2 1 -3 6 -4 11 0 5 -4 13 -8 17 -5 4 -8 14 -8 22 0 7 -21 57 -46
110 -99 205 -249 391 -423 522 -18 14 -38 30 -44 35 -21 18 -117 75 -127 75
-6 0 -10 5 -10 10 0 6 -5 10 -11 10 -5 0 -43 15 -82 34 -65 31 -103 47 -117
51 -3 0 -36 10 -75 22 -70 21 -123 33 -180 40 -83 11 -611 21 -620 11 -3 -3 0
-12 7 -19 7 -8 31 -39 53 -69 44 -61 42 -58 89 -120 20 -25 42 -53 51 -62 8
-10 15 -21 15 -24 0 -3 19 -29 43 -58 23 -29 49 -63 57 -76 55 -82 84 -110
111 -110 16 0 31 1 32 3 2 1 12 -5 22 -13 12 -9 16 -10 11 -2 -6 9 -1 11 16 7
13 -2 46 -9 73 -15 117 -24 215 -66 326 -141 78 -52 219 -193 219 -219 0 -6 3
-10 8 -10 4 0 23 -30 42 -68 19 -37 37 -69 40 -72 6 -5 52 -145 57 -170 1 -8
5 -31 9 -50 15 -84 6 -303 -15 -377 -5 -18 -8 -33 -5 -33 3 0 -1 -15 -32 -95
-4 -11 -8 -27 -10 -35 -2 -8 -8 -16 -13 -18 -6 -2 -11 -14 -11 -27 0 -13 -7
-28 -16 -33 -9 -5 -14 -11 -12 -13 3 -4 -17 -37 -54 -93 -47 -70 -187 -187
-258 -216 -14 -6 -34 -14 -45 -19 -45 -21 -125 -42 -171 -46 -27 -2 -51 -4
-54 -5 -12 -4 -120 -1 -165 5 -112 13 -249 116 -298 225 -20 44 -21 63 -22
615 -2 555 -5 647 -27 730 -5 22 -12 48 -14 58 -5 29 -77 192 -86 195 -4 2 -8
8 -8 13 0 8 -52 85 -85 127 -8 11 -54 55 -137 135 -10 9 -21 17 -24 17 -3 0
-20 11 -37 24 -125 93 -311 153 -495 160 -34 1 -64 1 -65 0z"/>
</g>
</svg>
